<?xml version="1.0" encoding="utf-8"?>
<!-- Generator: Adobe Illustrator 16.0.0, SVG Export Plug-In . SVG Version: 6.00 Build 0)  -->
<!DOCTYPE svg PUBLIC "-//W3C//DTD SVG 1.1//EN" "http://www.w3.org/Graphics/SVG/1.1/DTD/svg11.dtd">
<svg version="1.1" id="Layer_1" xmlns="http://www.w3.org/2000/svg" xmlns:xlink="http://www.w3.org/1999/xlink" x="0px" y="0px"
	 width="100%" height="100%" viewBox="0 0 6.25 6.25" xml:space="preserve">
<circle fill="#FFFFFF" stroke="#000000" stroke-width="0.25" stroke-miterlimit="10" cx="3.235" cy="3.26" r="3.127"/>
<circle stroke="#000000" stroke-width="0.25" stroke-miterlimit="10" cx="3.235" cy="3.26" r="3.127"/>
<circle fill="#FFFFFF" stroke="#000000" stroke-width="0.25" stroke-miterlimit="10" cx="3.235" cy="3.259" r="3.127"/>
<rect x="0.217" y="2.442" fill="#F4E302" width="6.035" height="1.636"/>
<circle fill="#FFFFFF" stroke="#000000" stroke-width="0.25" stroke-miterlimit="10" cx="3.232" cy="3.288" r="3.127"/>
<rect x="0.215" y="2.47" fill="#474DA0" width="6.035" height="1.636"/>
<circle fill="#FFFFFF" stroke="#000000" stroke-width="0.25" stroke-miterlimit="10" cx="3.232" cy="3.259" r="3.127"/>
<rect x="0.214" y="2.442" fill="#EC292A" width="6.035" height="1.636"/>
<circle fill="#FFFFFF" stroke="#000000" stroke-width="0.25" stroke-miterlimit="10" cx="3.232" cy="3.259" r="3.127"/>
<rect x="0.214" y="2.442" fill="#B5529F" width="6.035" height="1.636"/>
<path fill="#FFFFFF" stroke="#000000" stroke-width="0.25" stroke-miterlimit="10" d="M6.358,3.259c0,1.728-1.399,3.128-3.125,3.128
	c-1.729,0-3.127-1.4-3.127-3.128s1.397-3.127,3.127-3.127C4.958,0.132,6.358,1.532,6.358,3.259z"/>
<rect x="0.214" y="2.442" fill="#E39825" width="6.035" height="1.636"/>
<path fill="#FFFFFF" stroke="#000000" stroke-width="0.25" stroke-miterlimit="10" d="M6.358,3.259c0,1.728-1.4,3.128-3.126,3.128
	c-1.729,0-3.127-1.4-3.127-3.128s1.397-3.127,3.127-3.127C4.958,0.132,6.358,1.532,6.358,3.259z"/>
<rect x="0.214" y="2.442" fill="#34A449" width="6.036" height="1.636"/>
<path fill="#FFFFFF" stroke="#000000" stroke-width="0.25" stroke-miterlimit="10" d="M6.358,3.259c0,1.728-1.4,3.128-3.125,3.128
	c-1.73,0-3.128-1.4-3.128-3.128s1.397-3.127,3.128-3.127C4.958,0.132,6.358,1.532,6.358,3.259z"/>
<rect x="0.215" y="2.442" fill="#78282B" width="6.034" height="1.636"/>
<circle fill="#F8E200" stroke="#000000" stroke-width="0.25" stroke-miterlimit="10" cx="3.232" cy="3.26" r="3.127"/>
<circle fill="#474CA0" stroke="#000000" stroke-width="0.25" stroke-miterlimit="10" cx="3.232" cy="3.26" r="3.127"/>
<circle fill="#EE2827" stroke="#000000" stroke-width="0.25" stroke-miterlimit="10" cx="3.232" cy="3.26" r="3.127"/>
<circle fill="#B5529F" stroke="#000000" stroke-width="0.25" stroke-miterlimit="10" cx="3.232" cy="3.26" r="3.127"/>
<path fill="#E29726" stroke="#000000" stroke-width="0.25" stroke-miterlimit="10" d="M6.358,3.26c0,1.728-1.399,3.127-3.125,3.127
	c-1.729,0-3.127-1.399-3.127-3.127s1.397-3.128,3.127-3.128C4.958,0.132,6.358,1.533,6.358,3.26z"/>
<path fill="#39A348" stroke="#000000" stroke-width="0.25" stroke-miterlimit="10" d="M6.358,3.26c0,1.728-1.4,3.127-3.126,3.127
	c-1.729,0-3.127-1.399-3.127-3.127s1.397-3.128,3.127-3.128C4.958,0.132,6.358,1.533,6.358,3.26z"/>
<path fill="#78292A" stroke="#000000" stroke-width="0.25" stroke-miterlimit="10" d="M6.358,3.26c0,1.728-1.4,3.127-3.125,3.127
	c-1.73,0-3.128-1.399-3.128-3.127s1.397-3.128,3.128-3.128C4.958,0.132,6.358,1.533,6.358,3.26z"/>
<circle stroke="#000000" stroke-width="0.25" stroke-miterlimit="10" cx="3.235" cy="3.274" r="3.127"/>
<circle fill="#757576" stroke="#000000" stroke-width="0.25" stroke-miterlimit="10" cx="3.235" cy="3.274" r="3.127"/>
<rect x="0.214" y="2.47" fill="#BCBCBC" width="6.035" height="1.637"/>
</svg>
