<svg version="1.1" id="table" xmlns="http://www.w3.org/2000/svg" xmlns:xlink="http://www.w3.org/1999/xlink" x="0px" y="0px"
	 width="100%" height="100%" viewBox="0 -1 215 125" xml:space="preserve">
<path fill="none" stroke="#000000" stroke-width="0.5" stroke-miterlimit="10" d="M211.508,105.4c0,7.219-5.852,13.071-13.07,13.071
	H13.703c-7.219,0-13.072-5.853-13.072-13.071V13.071C0.631,5.852,6.484,0,13.703,0h184.734c7.219,0,13.07,5.852,13.07,13.071V105.4z
	"/>
<rect x="10.174" y="10.241" fill="none" stroke="#000000" stroke-width="0.5" stroke-miterlimit="10" width="191.092" height="97.991"/>
<path fill="#FFFFFF" stroke="#000000" stroke-width="0.25" stroke-miterlimit="10" d="M10.331,16.083c0,0-2.032-2.596-3.701-4.809
	c-1.668-2.213,2.689-6.638,5.345-4.187c2.655,2.451,4.227,4.373,4.227,4.373s-0.142,2.436-1.81,3.729
	C12.723,16.482,10.331,16.083,10.331,16.083z"/>
<path fill="#FFFFFF" stroke="#000000" stroke-width="0.25" stroke-miterlimit="10" d="M16.316,107.861c0,0-2.56,2.077-4.743,3.783
	c-2.183,1.707-6.684-2.573-4.28-5.27c2.404-2.699,4.298-4.303,4.298-4.303s2.438,0.099,3.761,1.744
	C16.674,105.461,16.316,107.861,16.316,107.861z"/>
<path fill="#FFFFFF" stroke="#000000" stroke-width="0.25" stroke-miterlimit="10" d="M200.799,101.901c0,0,2.258,2.403,4.117,4.458
	c1.861,2.052-2.082,6.853-4.947,4.65c-2.863-2.203-4.602-3.977-4.602-3.977s-0.078-2.437,1.465-3.876
	C198.379,101.719,200.799,101.901,200.799,101.901z"/>
<path fill="#FFFFFF" stroke="#000000" stroke-width="0.25" stroke-miterlimit="10" d="M195.533,11.017c0,0,2.365-2.297,4.387-4.192
	c2.021-1.895,6.887,1.965,4.734,4.868c-2.154,2.901-3.896,4.669-3.896,4.669s-2.438,0.118-3.9-1.402
	C195.391,13.439,195.533,11.017,195.533,11.017z"/>
<path fill="#FFFFFF" stroke="#000000" stroke-width="0.25" stroke-miterlimit="10" d="M101.213,10.59c0,0,0.799-3.877,1.548-4.762
	c0.749-0.885,3.949-2.485,5.888-0.17c1.941,2.314,1.565,4.788,1.565,4.788s-2.216,2.701-4.494,2.599
	C103.441,12.942,101.213,10.59,101.213,10.59z"/>
<path fill="#FFFFFF" stroke="#000000" stroke-width="0.25" stroke-miterlimit="10" d="M110.206,107.577c0,0-0.799,3.876-1.547,4.762
	c-0.75,0.885-3.949,2.484-5.89,0.17s-1.565-4.788-1.565-4.788s2.216-2.701,4.495-2.599
	C107.977,105.224,110.206,107.577,110.206,107.577z"/>
<polyline fill="none" stroke="#000000" stroke-width="0.25" stroke-miterlimit="10" points="10.512,103.095 13.19,100.275
	13.19,19.553 10.174,15.904 "/>
<polyline fill="none" stroke="#000000" stroke-width="0.25" stroke-miterlimit="10" points="15.865,108.231 19.549,105.182
	100.674,105.182 101.175,108.231 "/>
<polyline fill="none" stroke="#000000" stroke-width="0.25" stroke-miterlimit="10" points="110.124,108.26 110.574,105.21
	193.26,105.21 193.26,105.21 196.367,107.905 "/>
<polyline fill="none" stroke="#000000" stroke-width="0.25" stroke-miterlimit="10" points="201.266,102.144 197.852,98.527
	197.852,19.729 201.266,15.949 "/>
<polyline fill="none" stroke="#000000" stroke-width="0.25" stroke-miterlimit="10" points="196.4,10.241 192.617,13.044
	111.057,13.044 110.147,10.241 "/>
<polyline fill="none" stroke="#000000" stroke-width="0.25" stroke-miterlimit="10" points="101.297,10.241 100.615,13.044
	17.842,13.044 15.104,10.241 "/>
<circle cx="36.596" cy="6.712" r="1.112"/>
<circle cx="59.653" cy="6.712" r="1.112"/>
<circle cx="82.573" cy="6.712" r="1.112"/>
<circle cx="129.732" cy="6.712" r="1.111"/>
<circle cx="152.652" cy="6.712" r="1.111"/>
<circle cx="175.619" cy="6.712" r="1.111"/>
<circle cx="36.596" cy="111.238" r="1.112"/>
<circle cx="59.653" cy="111.238" r="1.112"/>
<circle cx="82.573" cy="111.238" r="1.112"/>
<circle cx="129.732" cy="111.238" r="1.111"/>
<circle cx="152.652" cy="111.238" r="1.111"/>
<circle cx="175.619" cy="111.238" r="1.111"/>
<circle cx="205.03" cy="35.306" r="1.112"/>
<circle cx="205.03" cy="58.317" r="1.112"/>
<circle cx="205.03" cy="81.827" r="1.112"/>
<circle cx="6.778" cy="35.306" r="1.112"/>
<circle cx="6.778" cy="58.317" r="1.112"/>
<circle cx="6.778" cy="81.827" r="1.112"/>
<line opacity="0.5" fill="none" stroke="#000000" stroke-width="0.25" stroke-miterlimit="10" x1="59.652" y1="13.047" x2="59.652" y2="105.118"/>
<circle fill="#FFFFFF" stroke="#828282" stroke-width="0.25" stroke-miterlimit="10" cx="59.653" cy="58.317" r="2.193"/>
<circle fill="#878787" stroke="#FFFFFF" stroke-width="0.25" stroke-miterlimit="10" cx="59.652" cy="58.317" r="0.804"/>
</svg>
